{
    "patcher": {
        "fileversion": 1,
        "appversion": {
            "major": 9,
            "minor": 1,
            "revision": 0,
            "architecture": "x64",
            "modernui": 1
        },
        "classnamespace": "box",
        "rect": [ 747.0, 211.0, 640.0, 480.0 ],
        "boxes": [
            {
                "box": {
                    "id": "obj-8",
                    "maxclass": "message",
                    "numinlets": 2,
                    "numoutlets": 1,
                    "outlettype": [ "" ],
                    "patching_rect": [ 424.0, 74.0, 29.5, 22.0 ],
                    "text": "info"
                }
            },
            {
                "box": {
                    "id": "obj-6",
                    "maxclass": "message",
                    "numinlets": 2,
                    "numoutlets": 1,
                    "outlettype": [ "" ],
                    "patching_rect": [ 321.0, 74.0, 31.0, 22.0 ],
                    "text": "stop"
                }
            },
            {
                "box": {
                    "id": "obj-5",
                    "maxclass": "newobj",
                    "numinlets": 1,
                    "numoutlets": 0,
                    "patching_rect": [ 380.0, 275.0, 126.0, 22.0 ],
                    "text": "print status @popup 1"
                }
            },
            {
                "box": {
                    "id": "obj-4",
                    "maxclass": "newobj",
                    "numinlets": 1,
                    "numoutlets": 0,
                    "patching_rect": [ 198.0, 275.0, 127.0, 22.0 ],
                    "text": "print output @popup 1"
                }
            },
            {
                "box": {
                    "id": "obj-3",
                    "maxclass": "message",
                    "numinlets": 2,
                    "numoutlets": 1,
                    "outlettype": [ "" ],
                    "patching_rect": [ 198.0, 74.0, 32.0, 22.0 ],
                    "text": "start"
                }
            },
            {
                "box": {
                    "id": "obj-1",
                    "maxclass": "newobj",
                    "numinlets": 1,
                    "numoutlets": 2,
                    "outlettype": [ "", "" ],
                    "patching_rect": [ 198.0, 159.0, 201.0, 22.0 ],
                    "text": "kernel @debug 1 @name testkernel"
                }
            }
        ],
        "lines": [
            {
                "patchline": {
                    "destination": [ "obj-4", 0 ],
                    "source": [ "obj-1", 0 ]
                }
            },
            {
                "patchline": {
                    "destination": [ "obj-5", 0 ],
                    "source": [ "obj-1", 1 ]
                }
            },
            {
                "patchline": {
                    "destination": [ "obj-1", 0 ],
                    "source": [ "obj-3", 0 ]
                }
            },
            {
                "patchline": {
                    "destination": [ "obj-1", 0 ],
                    "source": [ "obj-6", 0 ]
                }
            },
            {
                "patchline": {
                    "destination": [ "obj-1", 0 ],
                    "source": [ "obj-8", 0 ]
                }
            }
        ],
        "autosave": 0
    }
}